<?xml version="1.0" standalone="no"?>
<!DOCTYPE svg PUBLIC "-//W3C//DTD SVG 20010904//EN"
 "http://www.w3.org/TR/2001/REC-SVG-20010904/DTD/svg10.dtd">
<svg version="1.0" xmlns="http://www.w3.org/2000/svg"
 width="300.000000pt" height="300.000000pt" viewBox="0 0 300.000000 300.000000"
 preserveAspectRatio="xMidYMid meet">
<metadata>
Created by potrace 1.10, written by Peter Selinger 2001-2011
</metadata>
<g transform="translate(0.000000,300.000000) scale(0.100000,-0.100000)"
fill="#ffffff" stroke="none">
<path d="M448 2674 c-61 -19 -104 -63 -123 -126 -23 -77 -23 -2027 0 -2102 18
-60 46 -92 100 -117 38 -18 90 -19 1075 -19 983 0 1037 1 1075 19 50 23 91 70
105 121 7 26 9 377 8 1072 l-3 1034 -28 43 c-19 28 -44 50 -75 64 l-47 22
-1020 2 c-867 2 -1027 0 -1067 -13z m1407 -329 c61 -15 112 -29 114 -31 4 -3
-40 -265 -45 -272 -2 -2 -45 6 -96 18 -112 27 -266 32 -318 11 -73 -29 -103
-73 -114 -163 l-7 -57 123 -3 123 -3 3 -122 3 -123 -126 0 -125 0 0 -490 0
-490 -165 0 -165 0 0 490 0 490 -90 0 -90 0 0 125 0 125 90 0 90 0 0 62 c0 69
23 175 50 229 51 100 163 182 302 219 106 29 292 23 443 -15z m265 -1110 l0
-615 -165 0 -165 0 0 615 0 615 165 0 165 0 0 -615z"/>
</g>
</svg>
