<?xml version="1.0" standalone="no"?>
<!DOCTYPE svg PUBLIC "-//W3C//DTD SVG 20010904//EN"
 "http://www.w3.org/TR/2001/REC-SVG-20010904/DTD/svg10.dtd">
<svg version="1.0" xmlns="http://www.w3.org/2000/svg"
 width="512.000000pt" height="512.000000pt" viewBox="0 0 512.000000 512.000000"
 preserveAspectRatio="xMidYMid meet">
<metadata>
Created by potrace 1.11, written by Peter Selinger 2001-2013
</metadata>
<g transform="translate(0.000000,512.000000) scale(0.100000,-0.100000)"
fill="#000000" stroke="none">
<path d="M781 4579 c-89 -17 -182 -95 -225 -188 l-21 -46 0 -1785 0 -1785 26
-56 c33 -69 88 -127 154 -159 l50 -25 1775 -3 c1978 -3 1827 -8 1926 67 35 26
59 56 84 105 l35 69 0 1786 0 1786 -24 52 c-28 62 -103 136 -169 166 l-47 22
-1760 1 c-968 1 -1780 -2 -1804 -7z m2199 -545 c107 -18 361 -81 372 -92 6 -7
-67 -440 -76 -450 -3 -2 -53 7 -113 21 -198 47 -227 51 -373 51 -165 1 -233
-14 -304 -69 -74 -56 -123 -187 -114 -306 l3 -44 203 -3 202 -2 0 -205 0 -205
-205 0 -205 0 0 -835 0 -835 -280 0 -280 0 0 835 0 834 -152 3 -153 3 -3 203
-2 202 153 0 154 0 6 113 c14 263 75 423 215 563 74 74 129 111 232 155 196
85 458 108 720 63z m640 -1934 l0 -1040 -280 0 -280 0 0 1040 0 1040 280 0
280 0 0 -1040z"/>
</g>
</svg>
